<?xml version="1.0" encoding="utf-8"?>
<!-- Svg Vector Icons : http://www.onlinewebfonts.com/icon -->
<!DOCTYPE svg PUBLIC "-//W3C//DTD SVG 1.1//EN" "http://www.w3.org/Graphics/SVG/1.1/DTD/svg11.dtd">
<svg version="1.1" xmlns="http://www.w3.org/2000/svg" xmlns:xlink="http://www.w3.org/1999/xlink" x="0px" y="0px" viewBox="0 0 256 256" enable-background="new 0 0 256 256" xml:space="preserve">
<metadata> Svg Vector Icons : http://www.onlinewebfonts.com/icon </metadata>
<g><g><g><path fill="#000000" d="M43.5,59.9c-2.6,1.7-4.3,4.6-6.1,10L36.1,74L29,74.4l-7.1,0.3l-2.7,2.9c-6.9,7.3-9.7,24.1-9.1,55.4c0.4,23.4,2.2,34.5,7.1,42.8c2.7,4.7,4.7,5.6,12.4,5.8l6.8,0.3l1.1,4.1c1.5,5.4,3.8,8.9,7.1,10.5c2.5,1.2,3.6,1.3,16.1,1.1l13.4-0.2l2.5-2.8c4.8-5.4,8.4-22.9,9-43.1c0.1-5.3,0.1-5.3-2-7.2c-2.8-2.5-5.9-2.5-8.4-0.1c-1.5,1.6-1.8,2.5-2.2,6.9c-1,11.6-1.8,19.7-2.3,20.8c-1.1,3.2-3.2-24.3-3.2-43.8c0-20.1,2-48.4,3.2-44.1c0.4,1.6,1.5,11.5,2.3,20.5c0.3,4.2,0.6,5.3,2.1,6.9c2.8,3.2,7.9,2.5,9.9-1.3c0.8-1.6,0.8-3.2,0.3-10.4c-1.7-22.7-5-35.9-9.9-39.8c-1.6-1.3-2.4-1.3-15.8-1.3C46.1,58.5,45.6,58.5,43.5,59.9z M59,74.8c-5.1,22.5-5.3,79.3-0.3,104c0.8,4.2,1,5.7,0.4,5.8c-0.4,0.2-2.6,0.3-4.8,0.1l-4-0.2l-0.8-2.9c-3.8-13-5.7-51.3-4-77.8c1-14.2,3.3-29.7,4.8-32.2c0.2-0.3,2.4-0.5,5-0.5h4.6L59,74.8z M33.8,91c-2.2,21.1-2.2,51.7,0,73.7l0.4,4.3l-3.4-0.2c-3.4-0.2-3.4-0.3-4.3-2.7c-2.3-6.8-3.3-15.9-3.7-32.5c-0.4-21,0.6-33.8,3.7-44.2c0.7-2.4,0.7-2.4,4.2-2.4h3.4L33.8,91z"/><path fill="#000000" d="M180.6,59.4c-5.3,2.9-9.5,19.6-10.4,41.3l-0.4,8.9l1.7,1.7c2,2,3.7,2.4,6.5,1.7c3.3-0.8,4.1-2.7,4.7-11.1c0.6-8.6,1.9-19.4,2.2-19.1c0.1,0.1,0.8,4.1,1.3,8.8c0.9,6.8,1.1,13.9,1.1,35.5c0,25.2-0.4,32.9-2,43.5l-0.4,2.5l-0.4-2.2c-0.3-1.2-0.8-6.2-1.2-11.1c-1.1-14.1-1.1-14-3.2-15.9c-2.7-2.2-5.8-2.2-8.3,0.3c-1.7,1.7-1.8,2.2-1.8,6.7c0,6.5,1.7,21.5,3.1,28.6c2.5,12,5.6,17,10.9,17.8c1.6,0.3,8.1,0.3,14.5,0.2c11.2-0.2,11.9-0.3,13.9-1.7c2.3-1.7,5.4-7.5,6.1-11.5l0.4-2.4l6.9-0.3c7.7-0.3,9-0.8,12.1-5.1c6-8.2,9.3-34.7,7.7-61.1c-1.1-18.4-3.1-28.2-7.1-35.1c-2.9-4.9-4.1-5.5-12.3-5.9l-6.9-0.3l-1.6-5c-1.1-3.6-2.2-5.7-4-7.6l-2.5-2.6l-14.5-0.1C184.9,58.5,182,58.7,180.6,59.4z M206,73.5c1,3.5,2.4,12.1,3.4,20.8c1.1,10.1,1.1,56.9,0,66.7c-1,8.6-2.6,18.4-3.6,21.3l-0.7,2.2l-4.7,0.2l-4.6,0.2l0.4-2.1c3.1-17.6,4.2-31.3,4.2-54.9c0-23.3-1.4-41.3-4.2-54.7l-0.4-2h4.7h4.8L206,73.5z M229.3,90.4c1.7,5.6,2.9,14.2,3.6,26.2c1.1,17.5-0.7,40.8-3.8,49.3c-1,2.9-1.1,2.9-4.4,3l-3.4,0.2l0.4-3c2.2-17.5,2.2-59.3,0-76l-0.4-3h3.6h3.5L229.3,90.4z"/><path fill="#000000" d="M74.6,121.9c-2.3,2.3-2.5,2.7-2.5,6.1c0,3.4,0.2,3.8,2.4,6c2,2,3,2.5,5.8,2.9c1.9,0.2,24.4,0.3,49.9,0.2c45-0.2,46.4-0.3,48.5-1.5c2.5-1.5,4.5-4.9,4.5-7.5c0-2.8-1.8-6-4.1-7.4c-2-1.3-3-1.3-52.1-1.3h-50L74.6,121.9z"/></g></g></g>
</svg>